<svg xmlns="http://www.w3.org/2000/svg" viewBox="0 0 101 101">
  <rect x="0.0" y="6.5" width="10" height="10" rx="2.4" fill="#0A0A0A"/>
  <rect x="13.0" y="6.5" width="10" height="10" rx="2.4" fill="#0A0A0A"/>
  <rect x="26.0" y="6.5" width="10" height="10" rx="2.4" fill="#0A0A0A"/>
  <rect x="39.0" y="6.5" width="10" height="10" rx="2.4" fill="#0A0A0A"/>
  <rect x="52.0" y="6.5" width="10" height="10" rx="2.4" fill="#0A0A0A"/>
  <rect x="65.0" y="6.5" width="10" height="10" rx="2.4" fill="#0A0A0A"/>
  <rect x="78.0" y="6.5" width="10" height="10" rx="2.4" fill="#0A0A0A"/>
  <rect x="91.0" y="6.5" width="10" height="10" rx="2.4" fill="#0A0A0A"/>
  <rect x="0.0" y="19.5" width="10" height="10" rx="2.4" fill="#0A0A0A"/>
  <rect x="13.0" y="19.5" width="10" height="10" rx="2.4" fill="#0A0A0A"/>
  <rect x="26.0" y="19.5" width="10" height="10" rx="2.4" fill="#0A0A0A"/>
  <rect x="39.0" y="19.5" width="10" height="10" rx="2.4" fill="#0A0A0A"/>
  <rect x="52.0" y="19.5" width="10" height="10" rx="2.4" fill="#0A0A0A"/>
  <rect x="65.0" y="19.5" width="10" height="10" rx="2.4" fill="#0A0A0A"/>
  <rect x="78.0" y="19.5" width="10" height="10" rx="2.4" fill="#0A0A0A"/>
  <rect x="91.0" y="19.5" width="10" height="10" rx="2.4" fill="#0A0A0A"/>
  <rect x="0.0" y="32.5" width="10" height="10" rx="2.4" fill="#EFEFEF"/>
  <rect x="13.0" y="32.5" width="10" height="10" rx="2.4" fill="#EFEFEF"/>
  <rect x="26.0" y="32.5" width="10" height="10" rx="2.4" fill="#EFEFEF"/>
  <rect x="39.0" y="32.5" width="10" height="10" rx="2.4" fill="#6b52c8"/>
  <rect x="52.0" y="32.5" width="10" height="10" rx="2.4" fill="#6b52c8"/>
  <rect x="65.0" y="32.5" width="10" height="10" rx="2.4" fill="#6b52c8"/>
  <rect x="78.0" y="32.5" width="10" height="10" rx="2.4" fill="#EFEFEF"/>
  <rect x="91.0" y="32.5" width="10" height="10" rx="2.4" fill="#EFEFEF"/>
  <rect x="0.0" y="45.5" width="10" height="10" rx="2.4" fill="#EFEFEF"/>
  <rect x="13.0" y="45.5" width="10" height="10" rx="2.4" fill="#EFEFEF"/>
  <rect x="26.0" y="45.5" width="10" height="10" rx="2.4" fill="#6b52c8"/>
  <rect x="39.0" y="45.5" width="10" height="10" rx="2.4" fill="#6b52c8"/>
  <rect x="52.0" y="45.5" width="10" height="10" rx="2.4" fill="#6b52c8"/>
  <rect x="65.0" y="45.5" width="10" height="10" rx="2.4" fill="#EFEFEF"/>
  <rect x="78.0" y="45.5" width="10" height="10" rx="2.4" fill="#EFEFEF"/>
  <rect x="91.0" y="45.5" width="10" height="10" rx="2.4" fill="#EFEFEF"/>
  <rect x="0.0" y="58.5" width="10" height="10" rx="2.4" fill="#EFEFEF"/>
  <rect x="13.0" y="58.5" width="10" height="10" rx="2.4" fill="#6b52c8"/>
  <rect x="26.0" y="58.5" width="10" height="10" rx="2.4" fill="#6b52c8"/>
  <rect x="39.0" y="58.5" width="10" height="10" rx="2.4" fill="#6b52c8"/>
  <rect x="52.0" y="58.5" width="10" height="10" rx="2.4" fill="#EFEFEF"/>
  <rect x="65.0" y="58.5" width="10" height="10" rx="2.4" fill="#EFEFEF"/>
  <rect x="78.0" y="58.5" width="10" height="10" rx="2.4" fill="#EFEFEF"/>
  <rect x="91.0" y="58.5" width="10" height="10" rx="2.4" fill="#EFEFEF"/>
  <rect x="0.0" y="71.5" width="10" height="10" rx="2.4" fill="#0A0A0A"/>
  <rect x="13.0" y="71.5" width="10" height="10" rx="2.4" fill="#0A0A0A"/>
  <rect x="26.0" y="71.5" width="10" height="10" rx="2.4" fill="#0A0A0A"/>
  <rect x="39.0" y="71.5" width="10" height="10" rx="2.4" fill="#0A0A0A"/>
  <rect x="52.0" y="71.5" width="10" height="10" rx="2.4" fill="#0A0A0A"/>
  <rect x="65.0" y="71.5" width="10" height="10" rx="2.4" fill="#0A0A0A"/>
  <rect x="78.0" y="71.5" width="10" height="10" rx="2.4" fill="#0A0A0A"/>
  <rect x="91.0" y="71.5" width="10" height="10" rx="2.4" fill="#0A0A0A"/>
  <rect x="0.0" y="84.5" width="10" height="10" rx="2.4" fill="#0A0A0A"/>
  <rect x="13.0" y="84.5" width="10" height="10" rx="2.4" fill="#0A0A0A"/>
  <rect x="26.0" y="84.5" width="10" height="10" rx="2.4" fill="#0A0A0A"/>
  <rect x="39.0" y="84.5" width="10" height="10" rx="2.4" fill="#0A0A0A"/>
  <rect x="52.0" y="84.5" width="10" height="10" rx="2.4" fill="#0A0A0A"/>
  <rect x="65.0" y="84.5" width="10" height="10" rx="2.4" fill="#0A0A0A"/>
  <rect x="78.0" y="84.5" width="10" height="10" rx="2.4" fill="#0A0A0A"/>
  <rect x="91.0" y="84.5" width="10" height="10" rx="2.4" fill="#0A0A0A"/>
</svg>
